<mxfile host="app.diagrams.net" modified="2023-03-09T12:42:22.680Z" agent="5.0 (Windows NT 10.0; Win64; x64) AppleWebKit/537.36 (KHTML, like Gecko) Chrome/111.0.0.0 Safari/537.36" etag="FNZvKyX_yeYDXbZUyNsI" version="21.0.4" type="github">
  <diagram name="Page-1" id="e7e014a7-5840-1c2e-5031-d8a46d1fe8dd">
    <mxGraphModel dx="603" dy="613" grid="1" gridSize="10" guides="1" tooltips="1" connect="1" arrows="1" fold="1" page="1" pageScale="1" pageWidth="1169" pageHeight="826" background="none" math="0" shadow="0">
      <root>
        <mxCell id="0" />
        <mxCell id="1" parent="0" />
        <mxCell id="2" value="Membership" style="swimlane;whiteSpace=wrap;labelBackgroundColor=none;fillColor=#F2CC8F;strokeColor=#E07A5F;fontColor=#393C56;" parent="1" vertex="1">
          <mxGeometry x="164.5" y="128" width="280" height="570" as="geometry" />
        </mxCell>
        <mxCell id="7" value="ข้อมูลสมาชิก&#xa;ที่ทำผิดกฏ" style="labelBackgroundColor=none;fillColor=#F2CC8F;strokeColor=#E07A5F;fontColor=#393C56;" parent="2" vertex="1">
          <mxGeometry x="60" y="212" width="110" height="50" as="geometry" />
        </mxCell>
        <mxCell id="11" value="" style="endArrow=open;strokeColor=#E07A5F;endFill=1;rounded=0;labelBackgroundColor=none;fontColor=default;" parent="2" edge="1">
          <mxGeometry relative="1" as="geometry">
            <mxPoint x="115" y="270.0000000000001" as="sourcePoint" />
            <mxPoint x="115" y="325" as="targetPoint" />
          </mxGeometry>
        </mxCell>
        <mxCell id="H5I0HjstW5SvSYe0rr8k-55" value="เรียกข้อมูสมาชิก&lt;br style=&quot;border-color: var(--border-color); padding: 0px; margin: 0px;&quot;&gt;&lt;span style=&quot;&quot;&gt;มาตรวจสอบ&lt;/span&gt;" style="rounded=1;whiteSpace=wrap;html=1;labelBackgroundColor=none;strokeColor=#E07A5F;fontFamily=Helvetica;fontSize=12;fontColor=#393C56;fillColor=#F2CC8F;" vertex="1" parent="2">
          <mxGeometry x="55" y="322" width="120" height="60" as="geometry" />
        </mxCell>
        <mxCell id="3" value="Admin" style="swimlane;whiteSpace=wrap;labelBackgroundColor=none;fillColor=#F2CC8F;strokeColor=#E07A5F;fontColor=#393C56;" parent="1" vertex="1">
          <mxGeometry x="445" y="128" width="280" height="570" as="geometry" />
        </mxCell>
        <mxCell id="13" value="" style="ellipse;shape=startState;fillColor=#F2CC8F;strokeColor=#E07A5F;labelBackgroundColor=none;fontColor=#393C56;" parent="3" vertex="1">
          <mxGeometry x="124.5" y="40" width="30" height="30" as="geometry" />
        </mxCell>
        <mxCell id="14" value="" style="edgeStyle=elbowEdgeStyle;elbow=horizontal;verticalAlign=bottom;endArrow=open;endSize=8;strokeColor=#E07A5F;endFill=1;rounded=0;labelBackgroundColor=none;fontColor=default;" parent="3" source="13" target="15" edge="1">
          <mxGeometry x="40" y="20" as="geometry">
            <mxPoint x="55" y="90" as="targetPoint" />
            <Array as="points" />
          </mxGeometry>
        </mxCell>
        <mxCell id="15" value="เริ่มกระบวนการลงโทษ" style="labelBackgroundColor=none;fillColor=#F2CC8F;strokeColor=#E07A5F;fontColor=#393C56;" parent="3" vertex="1">
          <mxGeometry x="85.5" y="110" width="114.5" height="50" as="geometry" />
        </mxCell>
        <mxCell id="H5I0HjstW5SvSYe0rr8k-52" style="edgeStyle=orthogonalEdgeStyle;rounded=0;orthogonalLoop=1;jettySize=auto;html=1;strokeColor=#E07A5F;fontColor=#393C56;fillColor=#F2CC8F;" edge="1" parent="3">
          <mxGeometry relative="1" as="geometry">
            <mxPoint x="-105" y="240.9999999999999" as="targetPoint" />
            <mxPoint x="15" y="240.9999999999999" as="sourcePoint" />
          </mxGeometry>
        </mxCell>
        <mxCell id="17" value="" style="endArrow=open;strokeColor=#E07A5F;endFill=1;rounded=0;labelBackgroundColor=none;fontColor=default;" parent="3" edge="1">
          <mxGeometry relative="1" as="geometry">
            <mxPoint x="140" y="162" as="sourcePoint" />
            <mxPoint x="98.86075949367091" y="212" as="targetPoint" />
          </mxGeometry>
        </mxCell>
        <mxCell id="18" value="command queue" style="labelBackgroundColor=none;fillColor=#F2CC8F;strokeColor=#E07A5F;fontColor=#393C56;" parent="3" vertex="1">
          <mxGeometry x="20" y="325" width="110" height="50" as="geometry" />
        </mxCell>
        <mxCell id="31" value="critical&#xa;section" style="shape=note;whiteSpace=wrap;size=17;labelBackgroundColor=none;fillColor=#F2CC8F;strokeColor=#E07A5F;fontColor=#393C56;" parent="3" vertex="1">
          <mxGeometry x="105" y="490" width="100" height="50" as="geometry" />
        </mxCell>
        <mxCell id="32" value="" style="endArrow=none;strokeColor=#E07A5F;endFill=0;rounded=0;dashed=1;labelBackgroundColor=none;fontColor=default;" parent="3" source="18" target="31" edge="1">
          <mxGeometry relative="1" as="geometry" />
        </mxCell>
        <mxCell id="H5I0HjstW5SvSYe0rr8k-51" value="แอดมินทำ&#xa;การตรวจสอบกฏที่ตั้งไว้" style="labelBackgroundColor=none;fillColor=#F2CC8F;strokeColor=#E07A5F;fontColor=#393C56;" vertex="1" parent="3">
          <mxGeometry x="160" y="182" width="120" height="58" as="geometry" />
        </mxCell>
        <mxCell id="H5I0HjstW5SvSYe0rr8k-54" value="แอดมินทำ&lt;br style=&quot;border-color: var(--border-color); padding: 0px; margin: 0px;&quot;&gt;&lt;span style=&quot;&quot;&gt;การตรวจสอบสมาขิกที่&lt;/span&gt;&lt;br style=&quot;border-color: var(--border-color); padding: 0px; margin: 0px;&quot;&gt;&lt;span style=&quot;&quot;&gt;ทำผิดกฏ&lt;/span&gt;" style="rounded=1;whiteSpace=wrap;html=1;labelBackgroundColor=none;strokeColor=#E07A5F;fontFamily=Helvetica;fontSize=12;fontColor=#393C56;fillColor=#F2CC8F;" vertex="1" parent="3">
          <mxGeometry x="15" y="212" width="120" height="60" as="geometry" />
        </mxCell>
        <mxCell id="H5I0HjstW5SvSYe0rr8k-57" value="" style="shape=step;perimeter=stepPerimeter;whiteSpace=wrap;html=1;fixedSize=1;labelBackgroundColor=none;strokeColor=#E07A5F;fontFamily=Helvetica;fontSize=12;fontColor=#393C56;fillColor=#F2CC8F;" vertex="1" parent="3">
          <mxGeometry x="105" y="310" width="120" height="80" as="geometry" />
        </mxCell>
        <mxCell id="4" value="Thread 3" style="swimlane;whiteSpace=wrap;labelBackgroundColor=none;fillColor=#F2CC8F;strokeColor=#E07A5F;fontColor=#393C56;" parent="1" vertex="1">
          <mxGeometry x="724.5" y="128" width="280" height="570" as="geometry" />
        </mxCell>
        <mxCell id="33" value="process&#xa;command" style="labelBackgroundColor=none;fillColor=#F2CC8F;strokeColor=#E07A5F;fontColor=#393C56;" parent="4" vertex="1">
          <mxGeometry x="90" y="405" width="110" height="50" as="geometry" />
        </mxCell>
        <mxCell id="37" value="" style="edgeStyle=none;strokeColor=#E07A5F;endArrow=open;endFill=1;rounded=0;labelBackgroundColor=none;fontColor=default;" parent="4" target="33" edge="1">
          <mxGeometry width="100" height="100" relative="1" as="geometry">
            <mxPoint x="-30" y="429.5" as="sourcePoint" />
            <mxPoint x="90" y="429.5" as="targetPoint" />
          </mxGeometry>
        </mxCell>
        <mxCell id="38" value="" style="ellipse;shape=endState;fillColor=#F2CC8F;strokeColor=#E07A5F;labelBackgroundColor=none;fontColor=#393C56;" parent="4" vertex="1">
          <mxGeometry x="130" y="500" width="30" height="30" as="geometry" />
        </mxCell>
        <mxCell id="39" value="" style="endArrow=open;strokeColor=#E07A5F;endFill=1;rounded=0;labelBackgroundColor=none;fontColor=default;" parent="4" source="33" target="38" edge="1">
          <mxGeometry relative="1" as="geometry" />
        </mxCell>
        <mxCell id="20" value="" style="endArrow=open;strokeColor=#E07A5F;endFill=1;rounded=0;labelBackgroundColor=none;fontColor=default;" parent="1" target="18" edge="1">
          <mxGeometry relative="1" as="geometry">
            <mxPoint x="334.5" y="478" as="sourcePoint" />
          </mxGeometry>
        </mxCell>
      </root>
    </mxGraphModel>
  </diagram>
</mxfile>
